<?xml version="1.0" encoding="utf-8"?>
<!-- Generator: Adobe Illustrator 20.0.0, SVG Export Plug-In . SVG Version: 6.00 Build 0)  -->
<svg version="1.1" id="Layer_1" xmlns="http://www.w3.org/2000/svg" xmlns:xlink="http://www.w3.org/1999/xlink" x="0px" y="0px"
	 viewBox="0 0 144.75 269.5" style="enable-background:new 0 0 144.75 269.5;" xml:space="preserve">
<style type="text/css">
	.st0{fill:#FFFFFF;}
	.st1{fill-rule:evenodd;clip-rule:evenodd;}
</style>
<g>
	<path class="st1" d="M78.41,120.66c0-1.39,0.29-3.77-0.72-4.49c-0.86-0.61-1.88,0.01-1.94,0.72h-0.16
		c-0.29-1.08-2.42-1.19-2.42,1.36v2.4H78.41z M75.43,118.5v0.8h-1.69c0-0.68-0.08-1.76,0.89-1.76
		C75.04,117.54,75.43,117.92,75.43,118.5z M77.85,118.66v0.64h-1.85c0-1.06-0.14-1.92,1.05-1.92
		C77.66,117.38,77.85,118.04,77.85,118.66z"/>
</g>
<g>
	<path class="st1" d="M78.41,137.31c0-1.96,0.44-4.72-1.61-4.72c-0.49,0-1.01,0.51-1.05,0.96h-0.16c-0.29-1.06-2.42-1.18-2.42,1.36
		v2.4H78.41z M75.43,135.15v0.8h-1.69c0-0.68-0.13-1.64,0.83-1.73C75.1,134.18,75.43,134.58,75.43,135.15z M77.85,135.31v0.64h-1.85
		c0-1.06-0.14-1.92,1.05-1.92C77.64,134.03,77.85,134.71,77.85,135.31z"/>
</g>
<g>
	<path class="st1" d="M76.64,131.71c1.03,0,1.85-1.03,1.85-2.08c0-1.42-0.16-2.88-2.17-2.88h-3.14v0.88c1.09,0,3.58-0.18,4.24,0.27
		c0.91,0.61,0.67,2.45-0.86,2.45h-3.38v1.36H76.64z"/>
</g>
<g>
	<path class="st1" d="M78.41,149.4v-0.88l-1.45-0.72l0-2c0.24-0.16,0.42-0.21,0.7-0.35c0.28-0.14,0.5-0.24,0.75-0.37v-1.36
		c-0.38,0.09-0.89,0.41-1.34,0.59l-3.98,1.89v0.64c0.86,0.45,1.73,0.86,2.63,1.31c0.46,0.23,0.83,0.41,1.29,0.64
		C77.36,148.96,78.04,149.37,78.41,149.4 M74.96,146.81l1.11-0.61c0.18-0.08,0.18-0.11,0.4-0.16v1.52L74.96,146.81z"/>
</g>
<g>
	<path class="st1" d="M78.41,159.24v-1.36h-2.25c0-0.72,0.05-1.59-0.42-2.14c-0.22-0.27-0.71-0.61-1.16-0.55
		c-1.7,0.22-1.4,2.61-1.4,4.05H78.41z M75.59,157.08v0.8h-1.85c0-0.63,0.01-1.09,0.77-1.24C75.07,156.53,75.28,156.87,75.59,157.08z
		"/>
</g>
<g>
	<path class="st1" d="M76.32,141.55h2.09v-1.36c-2.35,0-1.92,0.31-3.65-1.02c-0.26-0.2-1.35-1-1.59-1.06v0.88
		c0.32,0.21,2.04,1.52,2.34,1.6c-0.16,0.21-2.17,1.67-2.34,1.76v1.44c0.31-0.16,0.47-0.32,0.76-0.53l1.56-1.18
		C75.65,141.97,76.15,141.55,76.32,141.55"/>
</g>
<g>
	<polygon class="st1" points="78.41,154.2 78.41,150.12 77.85,150.12 77.85,152.84 73.18,152.84 73.18,154.2 	"/>
</g>
<g>
	<polygon class="st1" points="78.41,125.46 78.41,121.38 77.85,121.38 77.85,124.1 73.18,124.1 73.18,125.46 	"/>
</g>
<g>
	<path d="M75.41,111.27v0.04c0,0.13,0.01,0.26,0.04,0.39c0.03,0.13,0.06,0.25,0.11,0.36c0.05,0.11,0.11,0.21,0.18,0.3
		c0.07,0.09,0.16,0.17,0.26,0.23h2.4v0.56h-3.45v-0.44l0.55-0.11v-0.01c-0.09-0.06-0.17-0.12-0.25-0.21
		c-0.08-0.08-0.14-0.17-0.2-0.27c-0.06-0.1-0.1-0.21-0.14-0.33c-0.03-0.12-0.05-0.25-0.05-0.38c0-0.02,0-0.05,0-0.07
		c0-0.03,0-0.05,0.01-0.07H75.41z"/>
</g>
<g>
	<path d="M76.89,108.68c-0.03,0.1-0.06,0.23-0.08,0.37c-0.03,0.14-0.04,0.3-0.04,0.47c0,0.24,0.05,0.43,0.15,0.56
		c0.1,0.14,0.26,0.2,0.47,0.2c0.11,0,0.2-0.02,0.28-0.05c0.08-0.03,0.15-0.08,0.2-0.14c0.05-0.06,0.09-0.13,0.12-0.21
		c0.03-0.08,0.04-0.17,0.04-0.26c0-0.12-0.02-0.23-0.05-0.34c-0.03-0.1-0.08-0.2-0.12-0.28c-0.05-0.08-0.1-0.15-0.15-0.21
		c-0.05-0.06-0.09-0.1-0.11-0.12H76.89z M78.02,108.65v0.01c0.06,0.05,0.12,0.11,0.17,0.17c0.06,0.07,0.11,0.15,0.15,0.24
		c0.05,0.09,0.08,0.19,0.11,0.3c0.03,0.11,0.04,0.23,0.04,0.35c0,0.17-0.03,0.32-0.07,0.46c-0.05,0.14-0.12,0.26-0.22,0.36
		c-0.1,0.1-0.21,0.18-0.35,0.23c-0.14,0.06-0.29,0.08-0.47,0.08c-0.17,0-0.33-0.03-0.46-0.09c-0.13-0.06-0.25-0.15-0.34-0.26
		c-0.09-0.11-0.17-0.25-0.22-0.4s-0.08-0.33-0.08-0.52c0-0.18,0.02-0.35,0.05-0.5c0.03-0.15,0.07-0.29,0.11-0.41v-0.01H76.2
		c-0.1,0-0.18,0.01-0.25,0.02c-0.07,0.01-0.14,0.03-0.19,0.06c-0.12,0.06-0.21,0.16-0.29,0.3c-0.08,0.14-0.11,0.32-0.11,0.56
		c0,0.17,0.02,0.34,0.05,0.49c0.03,0.15,0.08,0.31,0.13,0.46h-0.47c-0.03-0.06-0.06-0.13-0.08-0.2c-0.02-0.08-0.05-0.16-0.06-0.25
		c-0.02-0.09-0.03-0.18-0.04-0.28c-0.01-0.1-0.01-0.19-0.01-0.29c0-0.35,0.06-0.63,0.18-0.85c0.12-0.22,0.29-0.38,0.49-0.48
		c0.08-0.04,0.16-0.06,0.26-0.08c0.09-0.02,0.2-0.02,0.31-0.02h2.3v0.47L78.02,108.65z"/>
</g>
<g>
	<path d="M74.15,107.01h-0.62v-0.56h0.62V107.01z M78.4,107h-3.45v-0.56h3.45V107z"/>
</g>
<g>
	<path d="M75.43,104.77v-0.01c-0.08-0.06-0.15-0.13-0.22-0.21c-0.07-0.08-0.13-0.16-0.18-0.26c-0.05-0.09-0.09-0.2-0.12-0.31
		c-0.03-0.11-0.04-0.24-0.04-0.37c0-0.16,0.02-0.3,0.07-0.44c0.04-0.14,0.11-0.26,0.21-0.36c0.1-0.1,0.22-0.18,0.38-0.24
		c0.16-0.06,0.35-0.09,0.57-0.09h2.31v0.56h-2.22c-0.3,0-0.51,0.06-0.64,0.17c-0.13,0.11-0.2,0.28-0.2,0.5
		c0,0.19,0.05,0.38,0.16,0.56c0.11,0.18,0.26,0.34,0.44,0.47h2.45v0.56h-3.45v-0.44L75.43,104.77z"/>
</g>
<g>
	<path d="M76.62,98.3c0.32,0,0.6,0.04,0.83,0.13c0.23,0.09,0.43,0.2,0.58,0.35c0.15,0.14,0.27,0.31,0.34,0.49
		c0.08,0.18,0.11,0.37,0.11,0.57c0,0.15-0.02,0.28-0.06,0.39c-0.04,0.11-0.08,0.21-0.13,0.29c-0.05,0.08-0.1,0.14-0.16,0.19
		c-0.05,0.05-0.1,0.08-0.13,0.1v0.01l0.39,0.12v0.43h-5.25v-0.56h2.13v-0.01c-0.13-0.12-0.23-0.27-0.3-0.43
		c-0.07-0.16-0.11-0.35-0.11-0.56c0-0.1,0.01-0.2,0.03-0.31c0.02-0.11,0.06-0.22,0.11-0.33c0.05-0.11,0.12-0.22,0.21-0.32
		c0.09-0.1,0.2-0.19,0.32-0.27c0.13-0.08,0.28-0.14,0.46-0.18C76.18,98.32,76.39,98.3,76.62,98.3 M76.66,98.89
		c-0.27,0-0.5,0.03-0.67,0.1c-0.17,0.06-0.3,0.15-0.4,0.25c-0.1,0.1-0.16,0.21-0.2,0.32c-0.04,0.11-0.05,0.23-0.05,0.34
		c0,0.17,0.04,0.34,0.11,0.49c0.07,0.15,0.17,0.29,0.28,0.41h1.8c0.05-0.03,0.1-0.08,0.15-0.13c0.05-0.05,0.11-0.12,0.15-0.19
		c0.05-0.08,0.09-0.16,0.12-0.25c0.03-0.09,0.05-0.19,0.05-0.31c0-0.17-0.03-0.31-0.1-0.44c-0.07-0.13-0.16-0.23-0.28-0.32
		c-0.12-0.09-0.26-0.15-0.43-0.19C77.04,98.91,76.86,98.89,76.66,98.89z"/>
</g>
<g>
	<path d="M76.68,94.33c0.27,0,0.52,0.04,0.74,0.12c0.22,0.08,0.41,0.19,0.57,0.33c0.16,0.14,0.28,0.31,0.37,0.51
		c0.09,0.2,0.13,0.43,0.13,0.68c0,0.26-0.04,0.49-0.13,0.69c-0.09,0.2-0.21,0.37-0.37,0.52c-0.16,0.14-0.35,0.25-0.57,0.32
		c-0.22,0.08-0.47,0.11-0.74,0.11c-0.27,0-0.52-0.04-0.74-0.12c-0.22-0.08-0.41-0.19-0.57-0.33c-0.16-0.14-0.28-0.31-0.37-0.52
		c-0.09-0.2-0.13-0.43-0.13-0.68c0-0.25,0.04-0.48,0.13-0.69c0.09-0.2,0.21-0.38,0.37-0.52c0.16-0.14,0.35-0.25,0.57-0.32
		C76.16,94.37,76.41,94.33,76.68,94.33 M76.68,94.92c-0.21,0-0.4,0.03-0.57,0.08c-0.17,0.05-0.31,0.12-0.42,0.22
		c-0.12,0.09-0.2,0.2-0.26,0.33c-0.06,0.13-0.09,0.27-0.09,0.42c0,0.15,0.03,0.29,0.09,0.42c0.06,0.13,0.15,0.24,0.26,0.33
		c0.12,0.09,0.26,0.17,0.42,0.22c0.17,0.05,0.36,0.08,0.57,0.08c0.21,0,0.4-0.03,0.56-0.08c0.17-0.05,0.31-0.13,0.42-0.22
		c0.11-0.09,0.2-0.21,0.26-0.33c0.06-0.13,0.09-0.27,0.09-0.42c0-0.15-0.03-0.29-0.09-0.42c-0.06-0.13-0.15-0.24-0.26-0.33
		c-0.11-0.09-0.25-0.17-0.42-0.22C77.08,94.95,76.89,94.92,76.68,94.92z"/>
</g>
<g>
	<path d="M75.52,91.39c0.32,0.07,0.59,0.14,0.82,0.21l2.06,0.56v0.57l-3.45,1.12v-0.57l2.15-0.64c0.28-0.09,0.51-0.15,0.68-0.19
		v-0.01c-0.17-0.04-0.43-0.1-0.76-0.19l-2.07-0.58v-0.56l2.07-0.62c0.28-0.08,0.53-0.15,0.76-0.21v-0.01
		c-0.22-0.06-0.45-0.12-0.68-0.19l-2.15-0.64v-0.56L78.4,90v0.59l-2.06,0.57c-0.24,0.07-0.52,0.14-0.82,0.21V91.39z"/>
</g>
<path d="M131.92,16.41C120.21,6.29,97.39,0,72.37,0C47.35,0,24.53,6.29,12.9,16.35C1.28,25.14-2.21,37.53,1.3,57.63l-0.02,0.01
	l0.21,1.14l0.32,1.7l0.01-0.01c0.48,2.41,1.06,4.97,1.72,7.62l32.89,136.4c0.66,2.53,1.07,4.93,1.22,7.12
	c-0.11,2.25-0.04,4.42,0.2,6.45c0.11,0.95,0.6,2.17,2.3,2.53c0.5,0.11,1.42,0.29,2.45,0.48l2.04,0.39c0.12,0.12,0.22,0.25,0.22,0.37
	c0.6,0.45,0.91,1.21,1.36,1.81c0.3,0.45,0.45,1.06,0.6,1.66c0.45,1.21,0.76,2.56,1.06,4.37c0.3,1.81,0.6,3.92,0.76,6.18
	c0.15,2.56,0.3,5.12,0.45,7.69c0,2.86,0,5.73,0,8.14v0.9l6.95,7.39l2.27,2.11l6.04,5.28l0.15,0.15c1.06,0.9,2.27,1.81,7.86,2.11
	h0.15c5.74-0.3,6.8-1.21,7.86-2.11l0.15-0.15l6.04-5.28l2.42-2.11h-0.15l7.1-7.39c0,0,0,0-0.15,0v-0.9c0-2.41,0-5.28,0.15-8.14
	c0-2.56,0.15-5.12,0.3-7.69c0.3-2.26,0.45-4.37,0.76-6.18c0.3-1.81,0.6-3.16,1.06-4.37c0.15-0.6,0.45-1.21,0.6-1.66
	c0.45-0.6,0.91-1.36,1.36-1.81c0-0.13,0.12-0.27,0.26-0.4l1.86-0.35c1.03-0.2,1.94-0.37,2.45-0.48c1.7-0.36,2.19-1.58,2.3-2.53
	c0.24-2.03,0.31-4.2,0.2-6.45c0.15-2.19,0.56-4.59,1.23-7.14L141.19,68.1c0.67-2.67,1.25-5.22,1.73-7.63l0.02,0.01l0.32-1.7
	l0.21-1.14l-0.02-0.01C146.95,37.53,143.47,25.14,131.92,16.41z M79.02,265.99l-0.15,0.15c-0.76,0.6-1.66,1.36-6.35,1.51
	c-4.83-0.15-5.59-0.9-6.5-1.51l-0.15-0.15l-3.78-3.47c0.6,0.15,1.21,0.15,1.96,0.15c1.21,0,2.57,0,3.93,0
	c1.51,0.15,3.02,0.15,4.53,0.15c1.51,0,3.02,0,4.38-0.15c1.51,0,2.87,0,4.08,0c0.6,0,1.36,0,1.81-0.15L79.02,265.99z M96.24,223.04
	c-0.3,0.75-0.6,1.36-0.76,1.96c-0.45,1.21-0.76,2.71-1.06,4.52c-0.3,1.81-0.6,3.92-0.76,6.18c-0.15,2.41-0.3,5.12-0.45,7.69
	c0,2.14,0,4.38,0,6.44c-19.29,2.24-36.63,0.55-41.55-0.04c0-1.38,0-2.76,0-4.14c2.57,0.15,5.29,0.3,8.01,0.45
	c5.14,0.3,10.42,0.3,14.96,0.3v-1.36c-4.53,0-9.97-0.15-14.96-0.3c-2.72-0.15-5.44-0.3-8.01-0.6c0-0.3,0-0.45,0-0.75
	c0-1.21-0.15-2.41-0.15-3.62c2.57,0.15,5.29,0.3,8.16,0.45c5.14,0.3,10.42,0.3,14.96,0.3v-1.36c-4.53,0-9.97-0.15-14.96-0.45
	c-2.87,0-5.74-0.3-8.31-0.45c0-0.9,0-1.66-0.15-2.56c0-0.6-0.15-1.21-0.15-1.96c2.72,0.3,5.59,0.45,8.61,0.6
	c5.14,0.3,10.42,0.3,14.96,0.3v-1.51c-4.53,0-9.97,0-14.96-0.3c-3.02-0.15-6.04-0.3-8.76-0.6c-0.15-0.9-0.3-1.81-0.45-2.71
	c0-0.6-0.15-1.21-0.3-1.66c2.87,0.3,6.19,0.45,9.52,0.6c5.14,0.15,10.42,0.3,14.96,0.3v-1.51c-4.53,0-9.97,0-14.96-0.3
	c-3.48-0.15-6.95-0.3-9.82-0.6c-0.15-0.45-0.3-0.9-0.45-1.36c-0.15-0.6-0.45-1.21-0.76-1.96c-0.15-0.3-0.45-0.75-0.76-1.21
	l0.91,0.15c1.21,0.15,2.57,0.15,4.08,0.3c2.72,0.15,5.89,0.3,9.06,0.45c3.47,0.15,7.1,0.15,10.42,0.15c3.32,0,6.95,0,10.58-0.15
	c3.17-0.15,6.19-0.3,8.91-0.45c1.51-0.15,3.02-0.15,4.23-0.3l0.91-0.15C96.7,222.29,96.55,222.59,96.24,223.04z M104.12,217.31
	l-4.75,0.71c-12.9,1.34-23.72,1.34-26.99,1.34s-6.92-0.15-10.44-0.3l-0.13,0c-3.11,0-8.33-0.09-16.41-1.04l-4.76-0.71
	c-0.16-1.59-0.2-3.28-0.14-5.02c5.32,0.97,16.02,1.47,31.86,1.47c15.89,0,26.61-0.5,31.91-1.48
	C104.32,214.03,104.28,215.72,104.12,217.31z M105.56,203.78c-0.65,2.49-1.06,4.87-1.25,7.08c-5.07,1-15.82,1.51-31.96,1.51
	c-16.1,0-26.83-0.51-31.92-1.51c-0.19-2.22-0.6-4.59-1.24-7.06l-4.81-19.96c9.08,0.67,21.84,1.02,37.98,1.02
	c16.16,0,28.94-0.34,38.02-1.02L105.56,203.78z M138.44,67.43l-27.72,114.99c-9.07,0.7-21.97,1.05-38.36,1.05
	c-16.37,0-29.25-0.35-38.32-1.05L6.31,67.41c-0.39-1.54-0.74-3.04-1.06-4.49c6.18-2.43,13.75-4.27,23.11-5.6
	c11.75-1.68,26.19-2.51,44.14-2.55c17.95,0.04,32.39,0.88,44.14,2.55c9.25,1.32,16.75,3.13,22.89,5.52
	C139.19,64.32,138.83,65.85,138.44,67.43z M141.39,58.39c-0.21,1.11-0.43,2.24-0.67,3.38c-0.29-0.12-0.59-0.22-0.89-0.34
	c-1.55-0.6-3.18-1.16-4.9-1.68c-0.01,0-0.02-0.01-0.03-0.01c-0.85-0.26-1.71-0.51-2.6-0.75c-0.06-0.02-0.12-0.03-0.17-0.04
	c-0.84-0.23-1.71-0.45-2.59-0.66c-0.14-0.03-0.29-0.06-0.43-0.1c-0.82-0.19-1.64-0.38-2.49-0.56c-0.27-0.06-0.54-0.11-0.81-0.16
	c-0.75-0.15-1.49-0.31-2.27-0.45c-0.49-0.09-1.01-0.18-1.51-0.27c-0.58-0.1-1.15-0.21-1.75-0.31c-1.12-0.18-2.27-0.36-3.45-0.53
	c-11.82-1.69-26.32-2.52-44.34-2.57c-18.02,0.04-32.52,0.88-44.34,2.57c-1.19,0.17-2.34,0.35-3.47,0.53
	c-0.64,0.1-1.25,0.22-1.87,0.33c-0.47,0.08-0.95,0.16-1.41,0.25c-0.82,0.15-1.61,0.32-2.39,0.48c-0.24,0.05-0.48,0.09-0.71,0.14
	c-0.89,0.19-1.76,0.39-2.62,0.59c-0.11,0.03-0.22,0.05-0.33,0.08c-0.93,0.22-1.83,0.46-2.71,0.7c-0.03,0.01-0.05,0.01-0.08,0.02
	c-2.74,0.75-5.27,1.57-7.61,2.48c-0.22,0.09-0.46,0.17-0.67,0.25c-0.25-1.15-0.47-2.29-0.67-3.38c-0.23-1.26-0.44-2.5-0.62-3.69
	c6.68-2.53,14.6-4.42,24.19-5.79c11.91-1.7,26.29-2.57,43.95-2.65l0.43-0.01l0.96,0l0.68,0l0.71,0.01
	c17.66,0.08,32.04,0.95,43.95,2.65c9.58,1.37,17.51,3.26,24.19,5.79C141.83,55.89,141.62,57.12,141.39,58.39z"/>
</svg>
