<?xml version="1.0" encoding="utf-8"?>
<!-- Generator: Adobe Illustrator 20.0.0, SVG Export Plug-In . SVG Version: 6.00 Build 0)  -->
<svg version="1.1" id="Layer_1" xmlns="http://www.w3.org/2000/svg" xmlns:xlink="http://www.w3.org/1999/xlink" x="0px" y="0px"
	 viewBox="0 0 237.8 402.71" style="enable-background:new 0 0 237.8 402.71;" xml:space="preserve">
<style type="text/css">
	.st0{fill-rule:evenodd;clip-rule:evenodd;}
</style>
<g>
	<path class="st0" d="M8.7,82.64"/>
</g>
<g>
	<path d="M71.14,131.05c0.19,0.21,0.76,0.05,1.16,0.09c0.41,0.04,0.54-0.1,0.53-0.52c-0.02-1.81-0.01-3.62-0.01-5.43
		c0-0.51-0.01-1.02,0.01-1.53c0.05-1.19,0.62-1.63,1.76-1.29c0.85,0.25,1.68,0.59,2.5,0.94c1.68,0.71,3.32,1.5,5.01,2.16
		c1.39,0.55,2.85,0.83,4.37,0.63c1.78-0.23,3.41-0.92,5.03-1.63c1.71-0.76,3.34-1.69,5.17-2.17c0.11-0.03,0.27-0.18,0.27-0.29
		c0.03-0.5,0.01-1.01,0.01-1.64c-0.78,0.23-1.51,0.36-2.17,0.64c-1.65,0.69-3.25,1.49-4.9,2.16c-1.03,0.42-2.1,0.77-3.18,1.04
		c-1.51,0.38-2.97-0.01-4.35-0.59c-1.84-0.76-3.65-1.62-5.48-2.41c-1.08-0.46-2.18-0.87-3.4-0.77c-0.92,0.08-1.68,0.47-2.02,1.35
		c-0.23,0.58-0.4,1.21-0.42,1.83c-0.05,2.07-0.03,4.14-0.02,6.21C71.02,130.26,70.92,130.8,71.14,131.05z M71.12,128.63
		c-0.01-1.64-0.02-3.33,0.02-4.99c0.01-0.53,0.15-1.11,0.41-1.79c0.3-0.77,0.95-1.2,1.93-1.29c0.12-0.01,0.25-0.02,0.37-0.02
		c1.07,0,2.06,0.38,2.98,0.78c0.77,0.33,1.55,0.68,2.3,1.02c1.04,0.47,2.11,0.95,3.18,1.39c1.19,0.49,2.77,1.01,4.42,0.59
		c1.1-0.28,2.18-0.63,3.2-1.05c0.88-0.36,1.76-0.76,2.6-1.15c0.75-0.34,1.53-0.69,2.3-1.02c0.44-0.19,0.92-0.31,1.42-0.44
		c0.19-0.05,0.39-0.1,0.6-0.16c0,0.12,0,0.24,0,0.35c0,0.42,0.01,0.78-0.02,1.14c0,0.05-0.11,0.17-0.19,0.19
		c-1.33,0.35-2.57,0.94-3.77,1.51c-0.46,0.22-0.95,0.45-1.42,0.66c-1.71,0.76-3.26,1.4-5,1.62c-1.37,0.18-2.79-0.03-4.32-0.63
		c-1.03-0.4-2.06-0.86-3.06-1.3c-0.64-0.28-1.3-0.58-1.95-0.85c-0.79-0.33-1.64-0.68-2.51-0.94c-0.6-0.18-1.04-0.15-1.36,0.08
		c-0.33,0.23-0.5,0.66-0.53,1.31c-0.02,0.4-0.02,0.81-0.02,1.21l0,0.32l0,1.34c0,1.34-0.01,2.72,0.01,4.08
		c0,0.19-0.02,0.31-0.08,0.36c-0.06,0.05-0.16,0.07-0.33,0.05c-0.15-0.01-0.31,0-0.48,0.01c-0.25,0.02-0.53,0.03-0.61-0.06
		c-0.14-0.15-0.12-0.5-0.1-0.82c0.01-0.11,0.01-0.21,0.01-0.31L71.12,128.63z"/>
	<path d="M236.38,86.43c-1.85-1.7-3.98-3.02-6.38-3.79H8.7l-2.12,0.45c-1.74,0.56-3.55,1.7-5.32,3.34v98.25
		c1.35,0.03,2.71,0.05,4.06,0.08c-2.41,0-3,2.73-2.19,6.72c0.55,2.73,1.77,6.06,3.5,9.51l14.25,29.67c0,0,0,0,0,0.01
		c0.72,1.09,1.76,2.14,3.14,3.13c2.14,2.25,3.48,4.87,4.01,7.83c0.19,1.04,0.28,2.12,0.27,3.25c0,0.26-0.01,0.52-0.02,0.78
		c-0.1,1.61,0.14,2.82,0.73,3.64c0.35,0.49,0.83,0.84,1.42,1.05c0.73,0.64,1.39,1.31,1.98,1.99c1.99,2.28,3.23,4.76,3.72,7.44
		c0.22,1.22,0.29,2.48,0.2,3.79c-0.16,1.48-0.02,2.76,0.43,3.84c0.43,1.03,1.13,1.87,2.1,2.54c0.24,0.17,0.46,0.34,0.68,0.51
		c2.23,1.81,3.58,4.26,4.03,7.34c0.21,1.41,0.23,2.95,0.07,4.62c-0.07,0.54-0.09,1.06-0.08,1.56c0.03,1.11,0.25,2.1,0.67,2.97
		c0.11,0.22,0.22,0.43,0.36,0.63l13.5,13.4l3.95,3.94c0.3,0.3,0.61,0.61,0.91,0.91c0.3,0.3,2.75,2.92,3.34,4.54
		c0.38,1.03,0.91,2.12,1.21,3.33c0.91,2.42,1.52,5.15,2.12,8.78c0.61,3.63,1.21,7.87,1.52,12.41c0.3,5.15,0.61,10.29,0.91,15.44
		c0,5.75,0,11.51,0,16.35v1.82l13.96,14.84l4.55,4.24l12.14,10.6l0.3,0.3c2.12,1.82,4.55,3.63,15.78,4.24h0.3
		c11.53-0.61,13.66-2.42,15.78-4.24l0.3-0.3l12.14-10.6l4.86-4.24h-0.3l14.27-14.84c0,0,0,0-0.3,0v-1.82c0-4.84,0-10.6,0.3-16.35
		c0-5.15,0.3-10.3,0.61-15.44c0.61-4.54,0.91-8.78,1.52-12.41c0.61-3.63,1.21-6.36,2.12-8.78c0.3-1.21,5.16-8.78,5.46-8.78
		l3.95-3.94l12.28-12.28c0.06-0.05,0.11-0.11,0.16-0.16l1.61-1.61c-0.16,0.01-0.33,0.01-0.49,0.02c0.42-0.87,0.65-1.86,0.67-2.97
		c0.01-0.5-0.01-1.01-0.08-1.56c-0.16-1.67-0.14-3.21,0.07-4.62c0.45-3.08,1.8-5.53,4.03-7.34c0.22-0.18,0.45-0.35,0.68-0.51
		c0.98-0.66,1.68-1.51,2.1-2.54c0.45-1.08,0.59-2.36,0.43-3.84c-0.09-1.3-0.02-2.57,0.2-3.79c0.49-2.68,1.73-5.16,3.72-7.44
		c0.59-0.68,1.25-1.34,1.98-1.99c0.6-0.21,1.07-0.56,1.42-1.05c0.59-0.82,0.84-2.03,0.73-3.64c-0.01-0.26-0.02-0.52-0.02-0.78
		c-0.01-1.13,0.08-2.21,0.27-3.25c0.54-2.97,1.88-5.58,4.01-7.83c1.37-1,2.42-2.04,3.14-3.13c0,0,0,0,0-0.01l14.25-29.67
		c1.74-3.45,2.95-6.78,3.5-9.51c0.81-3.99,0.22-6.72-2.19-6.72c1.35-0.02,2.7-0.05,4.06-0.08V86.43z M132.17,395.44l-0.3,0.3
		c-1.52,1.21-3.34,2.73-12.75,3.03c-9.71-0.3-11.23-1.82-13.05-3.03l-0.3-0.3l-7.59-6.96c1.21,0.3,2.43,0.3,3.95,0.3
		c2.43,0,5.16,0,7.89,0c3.04,0.3,6.07,0.3,9.11,0.3c3.04,0,6.07,0,8.8-0.3c3.04,0,5.77,0,8.2,0c1.21,0,2.73,0,3.64-0.3
		L132.17,395.44z M166.77,309.14c-0.61,1.51-1.21,2.72-1.52,3.94c-0.91,2.42-1.52,5.45-2.12,9.08c-0.61,3.63-1.21,7.87-1.52,12.41
		c-0.3,4.84-0.61,10.3-0.91,15.44c0,4.84,0,9.99,0,14.53h-1.82c-1.52,0.3-2.73,0.3-4.25,0.3c-1.82,0.3-3.64,0.3-5.16,0.3
		c-1.82,0-3.64,0.3-5.46,0.3c-2.12,0-4.25,0-6.07,0.3c-2.12,0-4.25,0-6.07,0c-2.43,0-4.55,0-6.37,0c-2.43,0.3-4.55,0.3-6.37,0.3
		c-2.12,0-4.25,0-6.37-0.3c-2.12,0-4.25,0-6.37,0c-2.12,0-4.25,0-6.37,0c-1.82-0.3-3.95-0.3-5.77-0.3c-1.82,0-3.64-0.3-5.77-0.3
		c-1.52,0-3.34,0-5.16-0.3c-1.21,0-2.73,0-4.25-0.3h-1.82c0-3.33,0-6.66,0-9.99c5.16,0.3,10.62,0.61,16.09,0.91
		c10.32,0.61,20.94,0.61,30.05,0.61v-2.73c-9.11,0-20.03-0.3-30.05-0.61c-5.46-0.3-10.93-0.61-16.09-1.21c0-0.61,0-0.91,0-1.51
		c0-2.42-0.3-4.84-0.3-7.27c5.16,0.3,10.62,0.61,16.39,0.91c10.32,0.61,20.94,0.61,30.05,0.61v-2.73c-9.11,0-20.03-0.3-30.05-0.91
		c-5.77,0-11.53-0.61-16.69-0.91c0-1.82,0-3.33-0.3-5.15c0-1.21-0.3-2.42-0.3-3.94c5.46,0.61,11.23,0.91,17.3,1.21
		c10.32,0.61,20.94,0.61,30.05,0.61v-3.03c-9.11,0-20.03,0-30.05-0.61c-6.07-0.3-12.14-0.61-17.6-1.21
		c-0.3-1.82-0.61-3.63-0.91-5.45c0-1.21-0.3-2.42-0.61-3.33c5.77,0.61,12.45,0.91,19.12,1.21c10.32,0.3,20.94,0.61,30.05,0.61v-3.03
		c-9.11,0-20.03,0-30.05-0.61c-6.98-0.3-13.96-0.61-19.73-1.21c-0.3-0.91-0.61-1.82-0.91-2.73c-0.3-1.21-0.91-2.42-1.52-3.94
		c-0.3-0.61-0.91-1.51-1.52-2.42l1.82,0.3c2.43,0.3,5.16,0.3,8.2,0.61c5.46,0.3,11.84,0.61,18.21,0.91c6.98,0.3,14.27,0.3,20.94,0.3
		c6.68,0,13.96,0,21.25-0.3c6.37-0.3,12.45-0.61,17.91-0.91c3.04-0.3,6.07-0.3,8.5-0.61l1.82-0.3
		C167.68,307.63,167.38,308.23,166.77,309.14z M190.84,285.7l-0.23,0.47l-0.35,0.35l-0.01,0.02l-0.13,0.13l-0.02,0.01l-1.74,1.74
		c-5.48,0.16-11.25,0.3-17.52,0.41c-14.22,0.25-30.72,0.37-51.94,0.37s-37.72-0.12-51.94-0.37c-6.25-0.11-12-0.25-17.47-0.41
		l-2.62-2.6l-0.06-0.12c-0.03-0.06-0.06-0.13-0.09-0.19c6.33,0.2,12.97,0.37,20.29,0.5c13.79,0.24,30.26,0.36,51.9,0.36
		s38.11-0.12,51.9-0.36c7.25-0.13,13.85-0.29,20.12-0.49C190.89,285.58,190.87,285.64,190.84,285.7z M193.1,271.96
		c-6.9,0.23-14.16,0.41-22.25,0.56c-14.22,0.25-30.72,0.37-51.94,0.37s-37.72-0.12-51.94-0.37c-8.16-0.14-15.47-0.33-22.42-0.56
		c-0.63-1.07-1.39-2.04-2.3-2.91c7.67,0.27,15.7,0.48,24.76,0.64c13.79,0.24,30.26,0.36,51.9,0.36s38.11-0.12,51.9-0.36
		c9-0.16,16.98-0.37,24.6-0.64C194.49,269.92,193.72,270.89,193.1,271.96z M205.33,248.23c-0.43,0.38-0.82,0.75-1.17,1.1
		c-0.36,0.36-0.72,0.74-1.06,1.14c-0.12,0.13-0.23,0.27-0.34,0.4c-9.44,0.37-19.24,0.65-30.68,0.86
		c-14.55,0.26-31.44,0.38-53.17,0.38c-21.73,0-38.62-0.13-53.17-0.38c-11.5-0.2-21.35-0.49-30.84-0.86
		c-0.11-0.13-0.22-0.26-0.34-0.39c-0.35-0.4-0.7-0.78-1.06-1.14c-0.35-0.36-0.75-0.72-1.17-1.1l-0.35-0.31
		c10.47,0.43,21.16,0.76,33.81,0.98c14.12,0.25,30.98,0.37,53.13,0.37c22.14,0,39.01-0.12,53.13-0.37
		c12.58-0.22,23.23-0.55,33.64-0.98L205.33,248.23z M213.44,230.26c-0.41,0.41-0.9,0.82-1.48,1.24l-0.2,0.15l-0.19,0.2
		c-0.12,0.12-0.23,0.25-0.34,0.37c-10.29,0.4-20.99,0.71-33.44,0.93c-16.09,0.28-34.8,0.42-58.89,0.42
		c-24.09,0-42.8-0.14-58.89-0.42c-12.51-0.22-23.26-0.53-33.6-0.93c-0.11-0.12-0.22-0.24-0.34-0.37l-0.19-0.2l-0.2-0.15
		c-0.58-0.42-1.07-0.84-1.48-1.24c-0.34-0.34-0.62-0.67-0.85-1c11.36,0.46,22.99,0.82,36.71,1.06c15.66,0.28,34.34,0.41,58.85,0.41
		s43.18-0.14,58.85-0.41c13.65-0.24,25.24-0.59,36.54-1.05C214.06,229.59,213.78,229.92,213.44,230.26z M231.97,187.23
		c-11.53,0.41-23.61,0.74-37.35,0.98c-20.63,0.37-44.68,0.54-75.72,0.54s-55.09-0.18-75.72-0.54c-13.8-0.24-25.94-0.57-37.52-0.99
		l-0.34-0.01l0-0.17l0.02-2.66c11.72,0.42,23.97,0.76,37.89,1c20.2,0.36,44.23,0.53,75.67,0.53c31.45,0,55.47-0.17,75.67-0.53
		c13.86-0.25,26.06-0.58,37.73-1l0.02,2.65l0,0.17L231.97,187.23z M70.9,128.63c-0.01-1.64-0.02-3.33,0.02-5
		c0.01-0.55,0.15-1.16,0.42-1.86c0.33-0.85,1.05-1.33,2.12-1.42c1.27-0.1,2.4,0.33,3.45,0.78c0.77,0.33,1.55,0.68,2.3,1.02
		c1.04,0.47,2.11,0.95,3.18,1.39c1.16,0.48,2.7,0.98,4.29,0.58c1.1-0.28,2.16-0.63,3.17-1.04c0.87-0.36,1.75-0.76,2.6-1.14
		c0.75-0.34,1.53-0.7,2.3-1.02c0.46-0.19,0.94-0.32,1.45-0.45c0.24-0.06,0.48-0.12,0.73-0.2l0.14-0.04v0.14c0,0.17,0,0.34,0,0.5
		c0,0.42,0.01,0.78-0.02,1.15c-0.01,0.16-0.21,0.35-0.35,0.38c-1.31,0.34-2.54,0.93-3.73,1.5c-0.47,0.22-0.95,0.45-1.43,0.67
		c-1.72,0.76-3.29,1.41-5.05,1.64c-1.41,0.18-2.86-0.03-4.43-0.64c-1.03-0.41-2.07-0.86-3.07-1.31c-0.64-0.28-1.3-0.58-1.95-0.85
		c-0.79-0.33-1.62-0.68-2.49-0.94c-0.52-0.15-0.92-0.14-1.18,0.05c-0.27,0.19-0.41,0.57-0.44,1.14c-0.02,0.4-0.02,0.81-0.02,1.2
		l0,0.32l0,1.34c0,1.34-0.01,2.72,0.01,4.08c0,0.26-0.04,0.42-0.15,0.52c-0.11,0.1-0.26,0.13-0.5,0.11c-0.13-0.01-0.29,0-0.44,0.01
		c-0.11,0.01-0.21,0.01-0.31,0.01c-0.2,0-0.38-0.03-0.48-0.15c-0.2-0.22-0.18-0.6-0.16-0.97c0-0.1,0.01-0.21,0.01-0.3L70.9,128.63z
		 M101.18,127.06c0,1.17,0,2.39,0.01,3.58c0,0.17-0.01,0.36-0.13,0.48c-0.09,0.1-0.24,0.14-0.47,0.14h-0.05c-0.03,0-0.05,0-0.08,0
		c-0.61,0-0.93-0.01-1.11-0.2c-0.19-0.2-0.19-0.54-0.19-1.23c0-0.81,0-1.62,0-2.42c0-0.31,0-0.63,0-0.94c0-0.78,0.01-1.59-0.01-2.38
		c0-0.16,0.01-0.36,0.14-0.48c0.1-0.09,0.24-0.12,0.45-0.1c0.14,0.01,0.3,0.01,0.45,0c0.32-0.01,0.66-0.03,0.86,0.15
		c0.2,0.17,0.17,0.56,0.15,0.93c-0.01,0.12-0.02,0.25-0.02,0.36C101.18,125.66,101.18,126.36,101.18,127.06z M100.17,122.7
		c-0.42,0-0.81-0.16-1.1-0.45c-0.29-0.3-0.45-0.7-0.45-1.13c0-0.43,0.16-0.82,0.44-1.1c0.28-0.28,0.68-0.43,1.11-0.43
		c0.01,0,0.02,0,0.02,0c0.43,0.01,0.83,0.16,1.1,0.45c0.28,0.29,0.43,0.69,0.42,1.14C101.7,122.03,101.02,122.7,100.17,122.7z
		 M118.65,123.33c-0.01-0.71-0.27-0.97-0.99-0.97c-3.2,0-6.4,0-9.59,0h-3.84c-0.05,0-0.09,0-0.14,0c-0.09,0-0.18,0-0.27,0
		c-0.16,0.01-0.29-0.02-0.37-0.1c-0.09-0.09-0.12-0.21-0.11-0.39v-0.04c-0.03-0.71-0.05-1.07,0.15-1.28c0.2-0.2,0.55-0.2,1.26-0.2
		l8.24,0c1.61,0,3.21,0,4.82,0c0,0,0.01,0,0.01,0c1.48,0,2.59,0.91,2.76,2.27c0.12,0.96,0.11,2-0.04,3.01
		c-0.18,1.25-1.26,2.13-2.61,2.13c-1.82,0.01-3.63,0.01-5.45,0c-1.73,0-3.46,0-5.19,0c-0.54,0-1.08,0.03-1.61,0.1
		c-0.57,0.07-0.71,0.23-0.72,0.82c0,0.2,0,0.4-0.01,0.6c-0.01,0.48-0.02,0.97,0,1.45c0.01,0.41-0.23,0.49-0.5,0.52
		c-0.31,0.03-0.56,0.05-0.75,0.05c-0.27,0-0.44-0.04-0.56-0.15c-0.21-0.2-0.22-0.56-0.21-1.29c0-0.23,0-0.46,0-0.68
		c0-0.26,0-0.53,0-0.79c0.03-1.32,0.74-2.19,2-2.45c0.66-0.13,1.3-0.2,1.9-0.21c2.51-0.01,5.06-0.01,7.52,0c1.07,0,2.15,0,3.22,0
		c0.83,0,1.06-0.22,1.07-1.05l0-0.18C118.65,124.12,118.65,123.73,118.65,123.33z M121.92,128.17c-0.01-1.58,0-3.16,0-4.74
		c0.01-1.78,1.28-3.08,3.04-3.09c3.95-0.02,8.13-0.01,12.42,0c1.57,0.01,2.86,1.28,2.89,2.85c0.03,1.68,0.03,3.42,0,5.16
		c-0.03,1.6-1.31,2.86-2.91,2.88c-0.84,0.01-1.7,0.01-2.54,0.01c-0.62,0-1.25,0-1.86,0c-0.59,0-1.17,0-1.76,0l-0.11,0l-1.9,0
		c-1.4,0-2.81,0-4.21,0C123.25,131.23,121.93,129.91,121.92,128.17z M143.66,126.9c0,0.49,0.04,0.96,0.11,1.39
		c0.06,0.38,0.21,0.66,0.43,0.8c0.21,0.13,0.48,0.14,0.81,0.04c1.14-0.35,2.22-0.78,3.13-1.15c0.69-0.28,1.38-0.58,2.05-0.88
		c1.03-0.45,2.1-0.92,3.18-1.32c2.03-0.75,4.13-0.71,6.25,0.12c0.99,0.39,1.97,0.82,2.92,1.24c0.72,0.32,1.46,0.64,2.19,0.95
		c1.04,0.43,1.97,0.77,2.84,1.02c0.35,0.1,0.62,0.09,0.82-0.02c0.21-0.12,0.35-0.37,0.43-0.75c0.09-0.43,0.1-0.88,0.11-1.23
		c0.01-1.43,0.01-2.87,0.01-4.3l0-1.91c0-0.6,0.05-0.65,0.67-0.65c0.65,0,0.98-0.01,1.17,0.18c0.19,0.19,0.19,0.51,0.19,1.15
		c0,0.96,0,1.93,0,2.9c0,0.3,0,0.6,0,0.9c0,0.77,0,1.58-0.01,2.37c-0.01,0.44-0.06,0.86-0.16,1.27c-0.18,0.8-0.6,1.43-1.19,1.82
		c-0.41,0.27-0.89,0.41-1.41,0.41c-0.24,0-0.48-0.03-0.73-0.09c-0.98-0.23-2.02-0.57-3.2-1.05c-1.08-0.44-2.17-0.93-3.21-1.41
		c-0.48-0.22-0.96-0.44-1.45-0.65c-2.19-0.97-4.47-0.95-6.79,0.06c-0.68,0.3-1.35,0.6-2.03,0.9c-1.13,0.51-2.29,1.03-3.45,1.52
		c-0.63,0.27-1.35,0.47-2.13,0.62c-0.96,0.18-1.8,0.02-2.43-0.46c-0.62-0.48-0.99-1.25-1.06-2.22c-0.08-1.09-0.09-2.21-0.1-3.29
		c0-0.31,0-0.62-0.01-0.93c-0.01-0.6-0.01-1.19,0-1.79c0-0.54,0-1.09,0-1.63c0-0.13,0.01-0.3,0.12-0.4c0.08-0.08,0.2-0.11,0.38-0.1
		c0.18,0.01,0.37,0.01,0.55,0.01c0.09,0,0.19,0,0.28,0c0.64,0,0.69,0.05,0.69,0.67l0,1.83C143.65,124.19,143.65,125.55,143.66,126.9
		z M4.25,87.59c0.41-0.32,0.8-0.61,1.19-0.85c0.68-0.43,1.35-0.75,1.99-0.96l0.94-0.3l0.33-0.01h220.87
		c0.79,0.29,1.56,0.66,2.31,1.1c0.51,0.3,1.01,0.64,1.48,1.01H4.25z"/>
	<path d="M100.98,123.75c-0.26-0.22-0.83-0.08-1.26-0.12c-0.38-0.04-0.48,0.11-0.47,0.48c0.02,1.11,0.01,2.21,0.01,3.32
		c0,0.81,0,1.62,0,2.42c0,1.33,0,1.32,1.32,1.32c0.4,0,0.5-0.13,0.5-0.51c-0.02-1.9-0.01-3.79-0.01-5.69
		C101.07,124.54,101.2,123.94,100.98,123.75z M100.98,124.58c-0.01,0.13-0.02,0.26-0.02,0.37c0,0.7,0,1.4,0,2.1
		c0,1.18,0,2.39,0.01,3.59c0,0.18-0.02,0.28-0.07,0.33c-0.05,0.05-0.15,0.08-0.32,0.08h-0.05c-0.58,0-0.91,0-1.04-0.13
		c-0.13-0.13-0.13-0.47-0.13-1.08c0-0.81,0-1.62,0-2.42c0-0.31,0-0.63,0-0.94c0-0.78,0.01-1.59-0.01-2.38
		c0-0.17,0.02-0.27,0.07-0.32c0.04-0.03,0.1-0.05,0.19-0.05c0.03,0,0.06,0,0.09,0c0.15,0.02,0.32,0.01,0.48,0
		c0.28-0.01,0.58-0.02,0.71,0.1C101.03,123.93,101,124.3,100.98,124.58z"/>
	<path d="M129.43,129.22c1.13,0,2.25,0,3.37,0c1.38,0,2.81-0.01,4.21,0.02c0.39,0.01,0.71-0.12,0.94-0.34
		c0.22-0.22,0.33-0.53,0.31-0.88c-0.04-1.01-0.03-2.03-0.02-3.02c0-0.47,0.01-0.95,0.01-1.42c0-0.77-0.36-1.14-1.1-1.14
		c-2.03,0-4.1-0.01-6.18-0.01c-1.95,0-3.91,0-5.88,0.01c-0.76,0-1.14,0.38-1.14,1.17c0,0.47,0,0.94,0.01,1.41
		c0.01,0.96,0.02,1.95-0.03,2.93c-0.02,0.4,0.09,0.72,0.31,0.95c0.23,0.24,0.6,0.36,1.03,0.36
		C126.66,129.21,128.07,129.21,129.43,129.22z M127.17,124.65c0.39-0.41,0.9-0.54,1.46-0.36c0.46,0.14,0.91,0.29,1.35,0.46
		c0.58,0.23,1.16,0.23,1.77,0.01l0.08-0.03c0.33-0.12,0.67-0.24,1.01-0.35c0.61-0.2,1.17-0.15,1.58,0.15
		c0.4,0.29,0.62,0.81,0.61,1.45c-0.01,0.66-0.26,1.19-0.69,1.47c-0.4,0.26-0.91,0.27-1.45,0.04c-1.43-0.61-2.69-0.61-3.95-0.02
		c-0.27,0.13-0.54,0.19-0.78,0.19c-0.46,0-0.86-0.22-1.13-0.63C126.56,126.31,126.63,125.22,127.17,124.65z"/>
</g>
<path d="M236.87,23.74c-0.13-6.65-3.09-12.64-8.34-16.86C222.94,2.38,214.98,0,205.52,0H32.28C22.82,0,14.86,2.38,9.27,6.88
	C4.02,11.1,1.05,17.09,0.93,23.74L0,71.77c-0.04,2.16,0.63,4.06,1.89,5.34c1.08,1.11,2.53,1.69,4.19,1.69h225.63
	c1.66,0,3.1-0.58,4.19-1.69c1.26-1.29,1.93-3.18,1.89-5.34L236.87,23.74z M10.97,75.97l0.85-45.22
	C12.06,18.32,22.64,10.3,38.79,10.3H199c16.15,0,26.74,8.03,26.97,20.45l0.85,45.22H10.97z M233.88,75.13
	c-0.55,0.56-1.28,0.84-2.17,0.84h-3.47l-0.85-45.25c-0.12-6.1-2.77-11.59-7.48-15.47c-5.07-4.17-12.3-6.37-20.91-6.37H38.79
	c-8.61,0-15.84,2.2-20.91,6.37c-4.71,3.87-7.37,9.37-7.48,15.47L9.55,75.97H6.08c-0.89,0-1.62-0.28-2.17-0.84
	c-0.71-0.73-1.11-1.93-1.08-3.3L3.76,23.8C4.01,11.06,15.2,2.83,32.28,2.83h173.25c17.08,0,28.27,8.23,28.52,20.96l0.92,48.02
	C234.99,73.19,234.59,74.4,233.88,75.13z"/>
</svg>
