<?xml version="1.0" encoding="utf-8"?>
<!-- Generator: Adobe Illustrator 20.0.0, SVG Export Plug-In . SVG Version: 6.00 Build 0)  -->
<svg version="1.1" id="Layer_1" xmlns="http://www.w3.org/2000/svg" xmlns:xlink="http://www.w3.org/1999/xlink" x="0px" y="0px"
	 viewBox="0 0 336.25 323.78" style="enable-background:new 0 0 336.25 323.78;" xml:space="preserve">
<style type="text/css">
	.st0{fill-rule:evenodd;clip-rule:evenodd;}
</style>
<g>
	<path d="M168.12,323.78c-55,0-70.11-0.92-87.6-3.67c-4.27-0.67-4.64-0.82-7.86-3.03l-0.7-0.48
		c-41.74-28.52-65.57-54.01-70.83-75.76l-0.66-2.74l2.82,0.12c55.48,2.37,111.32,3.56,165.97,3.56c54.56,0,109.63-1.2,163.69-3.55
		l2.82-0.12l-0.67,2.75c-5.27,21.75-29.1,47.24-70.83,75.75l-0.7,0.48c-3.22,2.21-3.59,2.35-7.86,3.02
		C238.23,322.86,223.12,323.78,168.12,323.78z M6.03,242.59c6.31,20.12,29.28,43.82,68.33,70.5l0.71,0.48
		c2.58,1.77,2.58,1.77,6.11,2.33c17.24,2.72,32.23,3.62,86.94,3.62s69.7-0.9,86.94-3.62c3.53-0.56,3.53-0.56,6.11-2.33l0.71-0.48
		c39.04-26.67,62.01-50.37,68.33-70.49c-53.18,2.28-107.31,3.43-160.95,3.43C115.51,246.03,60.61,244.87,6.03,242.59z"/>
</g>
<g>
	<path class="st0" d="M129.35,224.29v3.62h1.25c1.17,0,2.51-0.41,2.51-1.58C133.11,224,131.42,224.29,129.35,224.29z"/>
	<path class="st0" d="M108.11,222.27l-1.47,2.97h2.98c-0.1-0.44-0.16-0.44-0.31-0.79L108.11,222.27z"/>
	<path class="st0" d="M132.73,221.5c-0.16-1.88-2.04-1.62-3.38-1.62v3.31h1.57C132.02,223.18,132.82,222.53,132.73,221.5z"/>
	<path class="st0" d="M161.93,224.29v3.62h1.25c1.21,0,2.51-0.37,2.51-1.58C165.68,224,163.99,224.29,161.93,224.29z"/>
	<path class="st0" d="M165.37,221.61c0-1.89-2.12-1.73-3.45-1.73v3.31h1.57C164.63,223.18,165.37,222.42,165.37,221.61z"/>
	<path class="st0" d="M86.44,219.87v3.62h1.57c0.4-0.61,1.07-1.02,0.86-2.11C88.58,219.89,87.68,219.87,86.44,219.87z"/>
	<path class="st0" d="M296.57,9.38c-0.7-2.01-2.25-3.75-4.34-4.28C250.89,1.71,209.54,0.01,168.12,0c-0.11,0-0.23,0-0.34,0
		c-41.3,0.02-82.54,1.72-123.77,5.1c-2.09,0.54-3.65,2.27-4.34,4.28C12.52,87.97-0.69,162.67,0.03,233.49
		c56.67,2.43,113.08,3.64,169.25,3.64c56.08,0,111.73-1.21,166.94-3.63C336.94,162.68,323.73,87.98,296.57,9.38z M59.41,230.88
		c-0.6-72.7,12.07-142.4,39.92-223.03c0.26-0.75,0.64-1.46,1.11-2.09c4.52-0.27,8.96-0.51,13.42-0.62
		c-0.79,0.79-1.27,1.65-1.64,2.72C84.31,88.63,71.65,158.48,72.31,231.3C68.01,231.17,63.71,231.03,59.41,230.88z M90.63,223.77
		c-1.09,0.92-2.77,0.83-4.19,0.83v4.41h-2.66v-10.24c2.83,0,7.5-0.58,7.93,2.74C91.83,222.39,91.15,223.34,90.63,223.77z
		 M101.63,229.01h-7.99v-10.24h2.66v9.14h5.32V229.01z M111.5,229.01c-0.26-0.49-0.46-0.93-0.73-1.47c-0.28-0.55-0.37-0.9-0.68-1.37
		l-3.91,0l-1.41,2.83h-1.72c0.06-0.73,0.86-2.05,1.2-2.73c0.45-0.9,0.8-1.62,1.25-2.52c0.87-1.76,1.67-3.46,2.56-5.15h1.25l3.7,7.78
		c0.35,0.87,0.99,1.88,1.16,2.62H111.5z M123.04,221.88c-2.61,3.39-1.99,2.54-1.99,7.13h-2.66v-4.1c0-0.33-0.82-1.31-1.05-1.62
		l-2.3-3.04c-0.41-0.57-0.71-0.88-1.03-1.48h2.82c0.17,0.32,3.03,4.26,3.45,4.57c0.15-0.58,2.72-3.95,3.13-4.57h1.72
		C125,219.24,123.44,221.37,123.04,221.88z M126.69,229.01v-10.24h4.7c4.97,0,4.75,4.17,2.66,4.73v0.32
		c0.89,0.07,1.88,1.09,1.88,2.05C135.93,229.87,130.52,229.01,126.69,229.01z M147.36,224.92c0,3.95-2.86,4.25-5.64,4.25
		c-2.05,0-4.07-1.6-4.07-3.62v-6.78h2.66v6.62c0,2.98,3.6,3.45,4.8,1.68c0.87-1.3,0.53-6.15,0.53-8.29h1.72V224.92z M157.85,229.01
		h-7.99v-10.24h2.66v9.14h5.32V229.01z M168.04,227.6c-1.41,1.98-6.06,1.41-8.78,1.41v-10.24h4.7c4.99,0,4.77,4.16,2.66,4.73v0.32
		C168.01,223.93,169.23,225.92,168.04,227.6z"/>
</g>
</svg>
