<?xml version="1.0" encoding="utf-8"?>
<!-- Generator: Adobe Illustrator 17.0.0, SVG Export Plug-In . SVG Version: 6.00 Build 0)  -->
<!DOCTYPE svg PUBLIC "-//W3C//DTD SVG 1.1//EN" "http://www.w3.org/Graphics/SVG/1.1/DTD/svg11.dtd">
<svg version="1.1" id="Layer_1" xmlns="http://www.w3.org/2000/svg" xmlns:xlink="http://www.w3.org/1999/xlink" x="0px" y="0px"
	 width="80.714px" height="93.804px" viewBox="0 0 80.714 93.804" enable-background="new 0 0 80.714 93.804" xml:space="preserve">
<path d="M49.525,23.056c-2.373-2.03-2.65-5.6-0.62-7.973c2.03-2.373,5.6-2.65,7.972-0.62c0.741,0.637,2.065,1.732,3.415,2.849
	c3.408,2.819,7.016,5.804,9.912,8.986c3.31,3.638,5.969,7.902,7.787,12.603c1.758,4.545,2.722,9.452,2.722,14.545
	c0,11.144-4.518,21.233-11.82,28.536C61.59,89.287,51.5,93.804,40.357,93.804c-11.144,0-21.233-4.518-28.536-11.821
	C4.518,74.681,0,64.591,0,53.447c0-5.237,0.937-10.33,2.755-15.011c1.824-4.695,4.51-8.922,8.003-12.415L35.119,1.66
	c2.214-2.214,5.803-2.214,8.017,0c2.214,2.213,2.214,5.803,0,8.017L18.775,34.039c-2.402,2.402-4.241,5.286-5.479,8.473
	c-1.292,3.326-1.958,7.036-1.958,10.936c0,8.014,3.248,15.269,8.499,20.52c5.251,5.251,12.506,8.499,20.519,8.499
	c8.013,0,15.269-3.248,20.519-8.499c5.251-5.251,8.499-12.506,8.499-20.52c0-3.726-0.682-7.256-1.925-10.47
	c-1.297-3.355-3.216-6.421-5.617-9.06c-2.328-2.559-5.636-5.294-8.76-7.879C52.016,25.164,50.984,24.31,49.525,23.056"/>
</svg>
