<?xml version="1.0" encoding="utf-8"?>
<!-- Generator: Adobe Illustrator 20.0.0, SVG Export Plug-In . SVG Version: 6.00 Build 0)  -->
<svg version="1.1" id="Layer_1" xmlns="http://www.w3.org/2000/svg" xmlns:xlink="http://www.w3.org/1999/xlink" x="0px" y="0px"
	 viewBox="0 0 947.54 109.19" style="enable-background:new 0 0 947.54 109.19;" xml:space="preserve">
<path d="M570.29,108.51c-19.32,0-38.63,0.04-57.95-0.01c-16-0.04-28.04-12.06-28.1-28.05c-0.06-14.99-0.05-29.97,0-44.96
	c0.05-16.2,11.64-28.24,27.8-28.3c39.29-0.15,78.59-0.13,117.89,0.02c14.23,0.05,26.14,11.76,26.4,25.99
	c0.3,16.31,0.3,32.64,0.03,48.95c-0.25,14.57-12.05,26.16-26.63,26.29c-19.81,0.18-39.63,0.05-59.44,0.05
	C570.29,108.49,570.29,108.5,570.29,108.51z M570.48,91.39c18.65,0,37.3-0.22,55.94,0.11c7.73,0.14,13.23-4.94,12.92-12.8
	c-0.55-14.13-0.13-28.3-0.17-42.45c-0.02-7.78-3.8-11.93-11.47-11.95c-38.13-0.1-76.26-0.1-114.39-0.01
	c-7.97,0.02-11.82,4.19-11.85,12.18c-0.04,13.82,0.44,27.66-0.17,41.45c-0.41,9.38,5.87,13.73,13.74,13.58
	C533.51,91.15,552,91.39,570.48,91.39z"/>
<path d="M947.49,45.49c0,10.33,0.13,20.66-0.07,30.99c-0.08,3.96-0.57,7.98-1.46,11.84c-3.42,14.84-15.37,22.96-30.27,19.52
	c-10.28-2.37-20.4-5.89-30.19-9.88c-14.91-6.08-29.48-13.02-44.2-19.57c-21.83-9.72-43.59-8.93-65.23,0.57
	c-17.34,7.61-34.52,15.6-51.97,22.95c-6.36,2.68-13.19,4.55-19.99,5.82c-17.91,3.35-30.58-6.25-31.88-24.51
	c-0.95-13.26-0.82-26.61-1-39.92c-0.14-10.83,0.04-21.66-0.07-32.49c-0.03-2.78,0.85-3.95,3.7-3.77c2.66,0.17,5.33,0.02,8,0.03
	c5.5,0.02,5.53,0.03,5.53,5.36c0.01,18.66-0.06,37.33,0.05,55.99c0.03,4.47,0.35,8.98,1.05,13.39c1.21,7.61,5.79,11.03,13.09,8.79
	c10.12-3.11,20.03-6.95,29.83-10.97c16.59-6.79,32.8-14.57,49.59-20.82c19.43-7.23,39.31-6.42,58.53,1.16
	c16.36,6.46,32.27,14.05,48.52,20.79c8.87,3.68,17.91,7.05,27.1,9.76c7.42,2.19,11.5-0.6,13.09-8.09c0.82-3.86,1.01-7.91,1.03-11.88
	c0.1-19.66,0.04-39.33,0.05-58.99c0-5.12,0.04-5.12,5.29-5.16c11.84-0.09,11.84-0.09,11.84,11.6
	C947.49,27.16,947.49,36.32,947.49,45.49z"/>
<path d="M379.77,7.21c21.49,0,42.98,0.04,64.48-0.02c12.98-0.04,23.7,7.83,25.32,20.69c1.17,9.28,0.99,19-0.38,28.27
	c-1.72,11.7-11.9,19.33-23.8,19.36c-33.65,0.1-67.31,0-100.96,0.09c-5.13,0.01-10.29,0.33-15.38,0.96c-6.08,0.76-7.65,2.8-7.7,8.79
	c-0.06,6.5-0.26,13-0.12,19.49c0.06,2.89-1.21,3.63-3.77,3.87c-13.17,1.24-13.5,0.96-13.31-12.16c0.07-4.66-0.08-9.32,0.02-13.98
	c0.25-12.01,6.43-19.86,18.13-22.24c5.82-1.18,11.84-1.9,17.78-1.93c33.99-0.14,67.97,0.01,101.96,0.03
	c8.51,0,11.09-2.58,11.14-10.94c0.02-4.33,0.05-8.66-0.01-12.99c-0.1-7.31-2.98-10.17-10.37-10.17
	c-42.48-0.02-84.97-0.01-127.45-0.01c-1.33,0-2.67-0.1-4,0.01c-2.68,0.22-3.6-1.12-3.41-3.57c0.01-0.17,0-0.33,0-0.5
	c-0.57-13.05-0.57-13.05,12.38-13.05C340.12,7.21,359.95,7.21,379.77,7.21z"/>
<path d="M246.38,6.45c0,6.01,0.15,10.81-0.12,15.59c-0.06,0.98-1.52,2.44-2.59,2.72c-17.34,4.54-32.85,13.4-49.07,20.58
	c-15.36,6.8-30.77,13.3-47.68,15.5c-14.47,1.88-28.27-0.83-41.48-6.01c-16.06-6.3-31.67-13.77-47.57-20.49
	c-7.78-3.29-15.65-6.51-23.74-8.92c-10.81-3.21-16.14,0.95-16.66,12.22c-0.22,4.82-0.14,9.66-0.14,14.49
	c-0.01,17.16-0.13,34.32,0.09,51.48c0.05,4.01-1.19,5.33-5.07,4.96c-3.78-0.36-9.22,1.12-10.98-0.85c-2.06-2.3-1.15-7.46-1.16-11.38
	c-0.07-19.65-0.32-39.3,0.17-58.94C0.5,31.57,2.2,25.55,4.34,20.07c3.29-8.4,10.44-12.11,19.21-12.84
	c11.51-0.96,21.99,2.93,32.23,7.34c17.39,7.48,34.51,15.61,52.01,22.84c13.16,5.44,26.99,9.17,41.31,5.57
	c10.25-2.58,20.42-5.89,30.2-9.91c15.67-6.44,30.88-13.98,46.49-20.54C232.09,9.88,238.96,8.59,246.38,6.45z"/>
<path d="M268.21,73.34c0-10.5,0.13-21-0.07-31.49c-0.06-3.44,0.9-4.87,4.46-4.52c4.08,0.41,9.45-0.95,11.91,1.18
	c2.06,1.78,0.85,7.47,0.86,11.44c0.05,18-0.07,36,0.1,53.99c0.03,3.66-0.93,4.87-4.73,4.88c-12.54,0.01-12.54,0.17-12.54-12.48
	C268.21,88.67,268.21,81,268.21,73.34z"/>
<path d="M277.04,0c8.02,0.1,13.58,5.91,13.43,14.02c-0.15,7.61-6.09,13.47-13.66,13.47c-7.75,0-13.77-6.11-13.73-13.95
	C263.1,5.59,268.98-0.1,277.04,0z"/>
<path d="M606.42,59.24c-0.2,11.63-8.33,18.07-18.91,13.55c-13.04-5.56-25.24-6.35-38.27-0.14c-7.36,3.51-13.56,1.32-16.81-3.81
	c-4.03-6.36-3.5-16.33,1.31-21.43c3.52-3.73,7.96-4.68,12.79-3.21c4.28,1.3,8.53,2.76,12.7,4.38c5.86,2.28,11.65,2.21,17.5,0.06
	c3.43-1.26,6.85-2.53,10.32-3.67C598.43,41.25,606.63,47.3,606.42,59.24z"/>
</svg>
