<?xml version="1.0" encoding="utf-8"?>
<!-- Generator: Adobe Illustrator 20.0.0, SVG Export Plug-In . SVG Version: 6.00 Build 0)  -->
<svg version="1.1" id="Layer_1" xmlns="http://www.w3.org/2000/svg" xmlns:xlink="http://www.w3.org/1999/xlink" x="0px" y="0px"
	 viewBox="0 0 811.1 828.3" style="enable-background:new 0 0 811.1 828.3;" xml:space="preserve">
<path d="M779.2,247.7c-20.4-48.3-49.7-91.7-86.9-128.9s-80.6-66.5-128.9-86.9C513.4,10.7,460.3,0,405.6,0S297.7,10.7,247.7,31.9
	c-48.3,20.4-91.7,49.7-128.9,86.9s-66.5,80.6-86.9,128.9C10.7,297.7,0,350.8,0,405.6c0,66.1,16.3,131.8,47.1,189.8
	c29.5,55.5,72.1,104.1,123.3,140.6l1,0.8c0.2,0.2,0.2,0.2,7.8,5c2.7,1.7,5.2,3.3,5.4,3.4c2.2,1.5,4,2.7,5.7,3.8
	c3.8,2.6,6.7,4.6,10.7,6.9c-10.6,3-26.7,5.8-42.1,6.4l-0.2,0c-3.3-0.2-5.6,1.5-6.3,4.8l-0.1,0.4c-1.4,7.1-2.6,22.8-3.5,47.9l0,0.5
	c0,3.8,2.6,6.6,6.1,6.7l0.4,0c81.6,3.7,164.7,5.7,246.8,5.7l0-4.3v4.3h6.6v-4.3l0,4.3c82.2-0.1,165.2-2,246.8-5.7l0.3,0
	c3.6-0.1,6.2-2.9,6.1-6.7l0-0.5c-1-25.1-2.1-40.7-3.5-47.9l-0.1-0.4c-0.7-3.2-3-4.9-6.2-4.7l-0.2,0c-15.4-0.6-31.5-3.4-42.1-6.4
	c4-2.3,6.9-4.3,10.7-6.9c1.7-1.1,3.5-2.4,5.7-3.8c0.2-0.1,2.6-1.7,5.3-3.4c3.2-2,5-3.2,6.1-3.9c0.3-0.2,0.6-0.3,0.8-0.5l0.1-0.1
	c0.2-0.1,0.4-0.3,0.6-0.4c0.1-0.1,0.2-0.1,0.2-0.2c51.8-36.6,94.8-85.5,124.4-141.4c30.8-58,47.1-123.7,47.1-189.8
	C811.1,350.8,800.4,297.7,779.2,247.7z M213.3,760.7l2.4-1.1c17,3.2,84.6,7.1,185.6,7.1c2.1,0,4.3,0,6.5,0
	c103.8,0,172.3-4.1,186.9-7.4l3,1.4c2.6,1.2,6.1,2.4,10,3.5c-11.2,0.4-22.3,0.8-33.4,1.2c-54.9,1.8-110.6,2.7-165.7,2.7h-6.6
	c-55.1,0-110.8-0.9-165.7-2.7c-11.1-0.4-22.2-0.7-33.4-1.2C207.2,763.1,210.6,761.9,213.3,760.7z M650.5,770.9
	c1.1,7.2,2.2,21.8,3,43.3c-81,3.7-163.3,5.6-244.7,5.6h-6.6c-81.4-0.1-163.8-2-244.7-5.6c0.9-21.5,1.9-36.1,3-43.3
	c25.2,1.2,50.7,2.2,75.8,3c54.9,1.8,110.8,2.7,165.9,2.7l0-4.3v4.3h6.6v-4.3l0,4.3c55.2,0,111-1,165.9-2.7
	C599.8,773.1,625.3,772.1,650.5,770.9z M408.8,755.7c97.6,0,166.6-4.6,198-7.7c-2.2,1.4-4.8,2.8-8.1,4.5l-8.8,4.6l0.2,0.1
	c-17.4,2.5-74.1,6.7-185.6,6.7c-108.6,0.1-165.2-3.9-184.2-6.4l0.7-0.3l-8.8-4.6c-3.3-1.8-5.9-3.2-8.1-4.5
	c31.4,3.1,100.5,7.7,198,7.7l0-3.2c0,0,0,0,0,0v3.2H408.8l0-3.2c0,0,0,0,0,0L408.8,755.7z M756.5,591.4
	c-29.1,54.8-71.3,102.7-122,138.6c-0.1,0.1-0.4,0.2-0.7,0.4c-0.2,0.1-0.4,0.2-0.6,0.4c-15.1,7.6-109.8,13.1-227.6,13.1
	c0,0,0,0-0.1,0c-120,0-215.9-5.7-228.3-13.6c-51-35.9-93.4-84-122.6-139C24.4,534.6,8.5,470.3,8.5,405.6C8.5,352,19,300,39.7,251
	c20-47.3,48.6-89.7,85.1-126.2c36.5-36.5,78.9-65.1,126.2-85.1C300,19,352,8.5,405.6,8.5c53.6,0,105.6,10.5,154.5,31.2
	c47.3,20,89.7,48.6,126.2,85.1c36.5,36.5,65.1,78.9,85.1,126.2c20.7,48.9,31.2,100.9,31.2,154.5
	C802.6,470.3,786.7,534.6,756.5,591.4z"/>
</svg>
