<?xml version="1.0" encoding="utf-8"?>
<!-- Generator: Adobe Illustrator 20.0.0, SVG Export Plug-In . SVG Version: 6.00 Build 0)  -->
<svg version="1.1" xmlns="http://www.w3.org/2000/svg" xmlns:xlink="http://www.w3.org/1999/xlink" x="0px" y="0px"
	 viewBox="0 0 316.52 316.52" style="enable-background:new 0 0 316.52 316.52;" xml:space="preserve">
<style type="text/css">
	.st0{fill-rule:evenodd;clip-rule:evenodd;}
</style>
<g id="Layer_1">
	<path d="M227.65,75.52l-0.08-0.08H84L72.58,86.86l-0.08,0.08v144.92l11.42,11.42l0.08,0.08h143.57l11.5-11.5V86.94L227.65,75.52z
		 M198.66,76h28.68l3.74,3.74h-32.42V76z M198.66,80.31h32.99l5.1,5.1h-38.09V80.31z M115.28,76h80.38v3.74h-80.38V76z
		 M115.28,80.31h80.38v5.1h-80.38V80.31z M115.28,85.98h80.38v5.1h-80.38V85.98z M115.28,91.65h80.38v5.1h-80.38V91.65z
		 M115.28,97.32h80.38v5.1h-80.38V97.32z M115.28,102.99h80.38v5.1h-80.38V102.99z M115.28,108.66h80.38v5.1h-80.38V108.66z
		 M115.28,114.33h80.38v5.1h-80.38V114.33z M115.28,120h80.38v5.1h-80.38V120z M115.28,125.67h80.38v5.1h-80.38V125.67z
		 M115.28,131.34h80.38v5.1h-80.38V131.34z M115.28,137h80.38v5.1h-80.38V137z M115.28,142.67h80.38v5.1h-80.38V142.67z M84.23,76
		h28.05v3.74h-31.8L84.23,76z M79.92,80.31h32.36v5.1H74.82L79.92,80.31z M73.06,87.17l1.19-1.19h38.03v5.1H73.06V87.17z
		 M73.06,91.65h39.22v5.1H73.06V91.65z M73.06,97.32h39.22v5.1H73.06V97.32z M73.06,102.99h39.22v5.1H73.06V102.99z M73.06,108.66
		h39.22v5.1H73.06V108.66z M73.06,114.33h39.22v5.1H73.06V114.33z M73.06,120h39.22v5.1H73.06V120z M73.06,125.67h39.22v5.1H73.06
		V125.67z M73.06,131.34h39.22v5.1H73.06V131.34z M73.06,137h39.22v5.1H73.06V137z M73.06,142.67h39.22v5.1H73.06V142.67z
		 M112.28,232.82H75.3v0.57h36.98v5.1H80.97v0.57h31.31v3.74H84.23l-11.17-11.17v-3.91h39.22V232.82z M112.28,227.15H73.06v-5.1
		h39.22V227.15z M112.28,221.48H73.06v-5.1h39.22V221.48z M112.28,215.81H73.06v-5.1h39.22V215.81z M112.28,210.14H73.06v-5.1h39.22
		V210.14z M112.28,204.47H73.06v-5.1h39.22V204.47z M112.28,198.8H73.06v-5.1h39.22V198.8z M112.28,193.13H73.06v-5.1h39.22V193.13z
		 M112.28,187.46H73.06v-5.1h39.22V187.46z M112.28,181.79H73.06v-5.1h39.22V181.79z M112.28,176.12H73.06v-5.1h39.22V176.12z
		 M195.66,242.8h-80.38v-3.74h80.38V242.8z M195.66,238.49h-80.38v-5.1h80.38V238.49z M195.66,232.82h-80.38v-5.1h80.38V232.82z
		 M195.66,227.15h-80.38v-5.1h80.38V227.15z M195.66,221.48h-80.38v-5.1h80.38V221.48z M195.66,215.81h-80.38v-5.1h80.38V215.81z
		 M195.66,210.14h-80.38v-5.1h80.38V210.14z M195.66,204.47h-80.38v-5.1h80.38V204.47z M195.66,198.8h-80.38v-5.1h80.38V198.8z
		 M195.66,193.13h-80.38v-5.1h80.38V193.13z M195.66,187.46h-80.38v-5.1h80.38V187.46z M195.66,181.79h-80.38v-5.1h80.38V181.79z
		 M195.66,176.12h-80.38v-5.1h80.38V176.12z M238.51,231.62l-11.17,11.17h-28.68v-3.74h31.74v-0.57h-31.74v-5.1h37.41v-0.57h-37.41
		v-5.1h39.85V231.62z M238.51,227.15h-39.85v-5.1h39.85V227.15z M238.51,221.48h-39.85v-5.1h39.85V221.48z M238.51,215.81h-39.85
		v-5.1h39.85V215.81z M238.51,210.14h-39.85v-5.1h39.85V210.14z M238.51,204.47h-39.85v-5.1h39.85V204.47z M238.51,198.8h-39.85
		v-5.1h39.85V198.8z M238.51,193.13h-39.85v-5.1h39.85V193.13z M238.51,187.46h-39.85v-5.1h39.85V187.46z M238.51,181.79h-39.85
		v-5.1h39.85V181.79z M238.51,176.12h-39.85v-5.1h39.85V176.12z M238.51,153.45h-29.29v0.57h29.29v5.1h-29.29v0.57h29.29v5.1h-29.29
		v0.57h29.29v5.1h-39.85v-2.89h-3v2.89h-80.38v-2.89h-3v2.89H73.06v-5.1H104v-0.57H73.06v-5.1H104v-0.57H73.06v-5.1H104v-0.57H73.06
		v-5.1h39.22v3.79h3v-3.79h80.38v3.79h3v-3.79h39.85V153.45z M238.51,147.78h-39.85v-5.1h39.85V147.78z M238.51,142.11h-39.85V137
		h39.85V142.11z M238.51,136.44h-39.85v-5.1h39.85V136.44z M238.51,130.77h-39.85v-5.1h39.85V130.77z M238.51,125.1h-39.85V120
		h39.85V125.1z M238.51,119.43h-39.85v-5.1h39.85V119.43z M238.51,113.76h-39.85v-5.1h39.85V113.76z M238.51,108.09h-39.85v-5.1
		h39.85V108.09z M238.51,102.42h-39.85v-5.1h39.85V102.42z M238.51,96.75h-39.85v-5.1h39.85V96.75z M238.51,91.08h-39.85v-5.1h38.66
		l1.19,1.19V91.08z"/>
	<g>
		<path class="st0" d="M196.65,166.16c3.29,0,8.93,0.69,10.63-1.71c1.45-2.04-0.04-4.45-1.71-4.59v-0.38
			c2.55-0.68,2.82-5.73-3.22-5.73h-5.69V166.16z M201.77,159.1h-1.9v-4.01c1.61,0,4.17-0.19,4.17,2.1
			C204.05,158.18,203.16,159.1,201.77,159.1z M201.39,164.83h-1.52v-4.39c2.5,0,4.55-0.34,4.55,2.48
			C204.43,164.38,202.86,164.83,201.39,164.83z"/>
	</g>
	<g>
		<path class="st0" d="M157.2,166.16c4.64,0,11.19,1.04,11.19-3.82c0-1.16-1.2-2.39-2.28-2.48v-0.38c2.52-0.68,2.8-5.73-3.22-5.73
			h-5.69V166.16z M162.32,159.1h-1.9v-4.01c1.62,0,3.9-0.31,4.1,1.97C164.63,158.31,163.66,159.1,162.32,159.1z M161.94,164.83
			h-1.52v-4.39c2.5,0,4.55-0.34,4.55,2.48C164.97,164.33,163.36,164.83,161.94,164.83z"/>
	</g>
	<g>
		<path class="st0" d="M170.47,161.97c0,2.45,2.45,4.39,4.93,4.39c3.37,0,6.83-0.37,6.83-5.15v-7.44h-2.09
			c0,2.59,0.42,8.48-0.64,10.05c-1.45,2.15-5.81,1.58-5.81-2.03v-8.02h-3.22V161.97z"/>
	</g>
	<g>
		<path class="st0" d="M128.55,166.16h2.09l1.71-3.43l4.74,0c0.37,0.56,0.49,0.99,0.82,1.65c0.33,0.65,0.57,1.19,0.89,1.78h3.22
			c-0.21-0.9-0.98-2.12-1.4-3.17l-4.48-9.43h-1.52c-1.07,2.04-2.04,4.11-3.1,6.23c-0.54,1.09-0.97,1.96-1.52,3.05
			C129.59,163.69,128.62,165.28,128.55,166.16 M134.69,157.99l1.45,2.64c0.19,0.42,0.25,0.42,0.38,0.95h-3.6L134.69,157.99z"/>
	</g>
	<g>
		<path class="st0" d="M105.22,166.16h3.23v-5.34c1.72,0,3.76,0.11,5.08-1c0.63-0.53,1.45-1.68,1.31-2.75
			c-0.52-4.02-6.18-3.32-9.61-3.32V166.16z M110.34,159.48h-1.9v-4.39c1.5,0,2.59,0.02,2.94,1.83
			C111.63,158.25,110.83,158.75,110.34,159.48z"/>
	</g>
	<g>
		<path class="st0" d="M147.14,161.2v4.96h3.22c0-5.57-0.74-4.54,2.41-8.64c0.48-0.62,2.37-3.2,2.52-3.77h-2.09
			c-0.5,0.75-3.61,4.83-3.79,5.53c-0.51-0.37-3.97-5.15-4.17-5.53h-3.41c0.38,0.73,0.75,1.11,1.25,1.8l2.79,3.69
			C146.15,159.61,147.14,160.8,147.14,161.2"/>
	</g>
	<g>
		<polygon class="st0" points="117.17,166.16 126.84,166.16 126.84,164.83 120.39,164.83 120.39,153.76 117.17,153.76 		"/>
	</g>
	<g>
		<polygon class="st0" points="185.27,166.16 194.94,166.16 194.94,164.83 188.5,164.83 188.5,153.76 185.27,153.76 		"/>
	</g>
</g>
<g id="Layer_2">
	<path d="M158.26,0C71,0,0,71,0,158.26c0,87.27,71,158.26,158.26,158.26c87.27,0,158.26-71,158.26-158.26
		C316.52,71,245.53,0,158.26,0z M158.26,312.27c-84.92,0-154.01-69.09-154.01-154.01S73.34,4.25,158.26,4.25
		s154.01,69.09,154.01,154.01S243.18,312.27,158.26,312.27z"/>
	<path d="M158.26,11.58c-80.88,0-146.68,65.8-146.68,146.68s65.8,146.68,146.68,146.68s146.68-65.8,146.68-146.68
		S239.14,11.58,158.26,11.58z M158.26,288.25c-71.68,0-129.99-58.31-129.99-129.99c0-71.68,58.31-129.99,129.99-129.99
		c71.68,0,129.99,58.31,129.99,129.99C288.25,229.94,229.94,288.25,158.26,288.25z"/>
	<path d="M158.26,31.45c-69.92,0-126.81,56.89-126.81,126.81c0,69.92,56.89,126.81,126.81,126.81
		c69.92,0,126.81-56.89,126.81-126.81C285.07,88.34,228.18,31.45,158.26,31.45z M158.26,284.05c-69.36,0-125.79-56.43-125.79-125.79
		c0-69.36,56.43-125.79,125.79-125.79c69.36,0,125.79,56.43,125.79,125.79C284.05,227.62,227.62,284.05,158.26,284.05z"/>
	<path d="M158.26,34.76c-68.1,0-123.5,55.4-123.5,123.5s55.4,123.5,123.5,123.5s123.5-55.4,123.5-123.5S226.36,34.76,158.26,34.76z
		 M158.26,279.64c-66.93,0-121.38-54.45-121.38-121.38c0-66.93,54.45-121.38,121.38-121.38c66.93,0,121.38,54.45,121.38,121.38
		C279.64,225.19,225.19,279.64,158.26,279.64z"/>
</g>
</svg>
